<?xml version="1.0" encoding="UTF-8" standalone="no" ?>
<!DOCTYPE svg PUBLIC "-//W3C//DTD SVG 1.1//EN" "http://www.w3.org/Graphics/SVG/1.1/DTD/svg11.dtd">
<svg xmlns="http://www.w3.org/2000/svg" xmlns:xlink="http://www.w3.org/1999/xlink" version="1.1" width="15" height="14" viewBox="0 0 15 14" xml:space="preserve">
<desc>Created with Fabric.js 3.6.6</desc>
<defs>
</defs>
<g transform="matrix(1 0 0 1 7.64 7.36)"  >
<linearGradient id="SVGID_378" gradientUnits="userSpaceOnUse" gradientTransform="matrix(1 0 0 1 4.36 4.69)"  x1="7.637884622728381" y1="14.71978664648791" x2="7.637884622728381" y2="0">
<stop offset="0%" style="stop-color:rgba(245, 192, 68, 1);"/>
<stop offset="98.7%" style="stop-color:rgba(222, 222, 222, 1);"/>
<stop offset="100%" style="stop-color:rgba(247, 247, 247, 1);"/>
<stop offset="100%" style="stop-color:rgba(255, 0, 0, 1);"/>
<stop offset="100%" style="stop-color:rgba(180, 180, 180, 1);"/>
</linearGradient>
<path style="stroke: rgb(245,192,68); stroke-opacity: 0.32; stroke-width: 0; stroke-dasharray: none; stroke-linecap: butt; stroke-dashoffset: 0; stroke-linejoin: miter; stroke-miterlimit: 4; fill: url(#SVGID_378); fill-rule: nonzero; opacity: 1;"  transform=" translate(-12, -12.05)" d="M 10.3073 7.21989 C 10.9494 5.61921 11.2704 4.81886 11.792 4.70794 C 11.9291 4.67877 12.0709 4.67877 12.208 4.70794 C 12.7296 4.81886 13.0506 5.61921 13.6927 7.21989 C 14.0579 8.13017 14.2404 8.58531 14.582 8.89488 C 14.6779 8.98171 14.7819 9.05904 14.8926 9.12579 C 15.2875 9.36377 15.7803 9.40791 16.7661 9.4962 C 18.4349 9.64565 19.2693 9.72037 19.5241 10.1961 C 19.5768 10.2946 19.6127 10.4013 19.6302 10.5117 C 19.7147 11.0447 19.1013 11.6028 17.8745 12.7189 L 17.5338 13.0289 C 16.9603 13.5507 16.6735 13.8116 16.5076 14.1372 C 16.4081 14.3325 16.3414 14.5428 16.3102 14.7598 C 16.2581 15.1215 16.342 15.5 16.51 16.257 L 16.57 16.5274 C 16.8712 17.885 17.0218 18.5637 16.8338 18.8974 C 16.6649 19.1971 16.3539 19.3889 16.0103 19.4053 C 15.6278 19.4236 15.0888 18.9844 14.0108 18.106 C 13.3006 17.5273 12.9455 17.2379 12.5513 17.1249 C 12.191 17.0216 11.809 17.0216 11.4488 17.1249 C 11.0545 17.2379 10.6994 17.5273 9.98923 18.106 C 8.91125 18.9844 8.37227 19.4236 7.98975 19.4053 C 7.64615 19.3889 7.3351 19.1971 7.16623 18.8974 C 6.97824 18.5637 7.12884 17.885 7.43004 16.5274 L 7.49004 16.257 C 7.658 15.5 7.74197 15.1215 7.68986 14.7598 C 7.6586 14.5428 7.59188 14.3325 7.49238 14.1372 C 7.32651 13.8116 7.03974 13.5507 6.46619 13.0289 L 6.12552 12.7189 C 4.89873 11.6028 4.28534 11.0447 4.36981 10.5117 C 4.3873 10.4013 4.42318 10.2946 4.47595 10.1961 C 4.73075 9.72037 5.56514 9.64565 7.2339 9.4962 C 8.21968 9.40791 8.71257 9.36377 9.10741 9.12579 C 9.21816 9.05904 9.32217 8.98171 9.41799 8.89488 C 9.7596 8.58531 9.94217 8.13017 10.3073 7.21989 Z" stroke-linecap="round" />
</g>
</svg>